<svg xmlns="http://www.w3.org/2000/svg" viewBox="0 0 407.76 70"><defs><style>.cls-1{fill:#f4f4f4;}.cls-2{fill:#121216;fill-rule:evenodd;}</style></defs><g id="Layer_2" data-name="Layer 2"><g id="Layer_1-2" data-name="Layer 1"><g id="Logo_5" data-name="Logo 5"><path class="cls-1" d="M122.5,19.17a16.82,16.82,0,0,0-8.37-2.05,15.33,15.33,0,0,0-8,2.09,11.69,11.69,0,0,0-4,4.06v-5.2H93.53v42.7h8.92V35.59a11.52,11.52,0,0,1,1.18-5.41A8.65,8.65,0,0,1,107,26.67a9.68,9.68,0,0,1,4.94-1.26,9.42,9.42,0,0,1,4.89,1.26,8.71,8.71,0,0,1,3.32,3.51,11.52,11.52,0,0,1,1.18,5.41V60.77h8.92V33.22a16.68,16.68,0,0,0-2-8.36A14.86,14.86,0,0,0,122.5,19.17Z"/><path class="cls-1" d="M168.2,23.32a18.49,18.49,0,0,0-6.39-4.54,21.45,21.45,0,0,0-8.69-1.66A20.29,20.29,0,0,0,142.43,20a20.71,20.71,0,0,0-7.54,7.86,23.17,23.17,0,0,0-2.76,11.44,23.57,23.57,0,0,0,2.76,11.41,20.85,20.85,0,0,0,7.65,8,21.44,21.44,0,0,0,11.29,3,22.78,22.78,0,0,0,8.09-1.38,19.73,19.73,0,0,0,6.32-3.75,15.14,15.14,0,0,0,3.91-5.37l-7.27-3.63a13.63,13.63,0,0,1-4.34,4.5,11.94,11.94,0,0,1-6.63,1.74A12.53,12.53,0,0,1,147.24,52a12.18,12.18,0,0,1-4.58-5,12.74,12.74,0,0,1-1.25-5h31.76a12.7,12.7,0,0,0,.32-2.06c0-.73.08-1.44.08-2.13a22.43,22.43,0,0,0-1.39-7.89A20.22,20.22,0,0,0,168.2,23.32Zm-25.58,8.17a11.44,11.44,0,0,1,4.27-5.09,11.23,11.23,0,0,1,6.23-1.78,11,11,0,0,1,6.24,1.78,10.41,10.41,0,0,1,3.94,4.81,10.55,10.55,0,0,1,.78,3.67H141.63A13.36,13.36,0,0,1,142.62,31.49Z"/><path class="cls-1" d="M186.35,25.92A7.28,7.28,0,0,1,191,24.54a10.57,10.57,0,0,1,10,6.79L208,28a15.57,15.57,0,0,0-6.47-8,19.19,19.19,0,0,0-10.42-2.88,19,19,0,0,0-7.9,1.58,12.73,12.73,0,0,0-5.44,4.5,11.81,11.81,0,0,0-2,6.79,11,11,0,0,0,2.73,7.42q2.72,3.15,8.33,4.73l6.71,1.9a17.09,17.09,0,0,1,2.64,1,6.89,6.89,0,0,1,2.17,1.62,3.63,3.63,0,0,1,.87,2.49,4.52,4.52,0,0,1-2,3.87,8.6,8.6,0,0,1-5.13,1.42,11.51,11.51,0,0,1-6.75-2.13,14.61,14.61,0,0,1-4.77-5.77l-6.87,3.24a17.24,17.24,0,0,0,6.87,8.68,20.37,20.37,0,0,0,11.52,3.24,19.81,19.81,0,0,0,8.29-1.62A13.44,13.44,0,0,0,206,55.6a11.36,11.36,0,0,0,2-6.67,11.13,11.13,0,0,0-2.84-7.62A16.68,16.68,0,0,0,197,36.62l-6.95-2.06a18.5,18.5,0,0,1-2.6-1A5.67,5.67,0,0,1,185.4,32a3.9,3.9,0,0,1-.78-2.49A4.36,4.36,0,0,1,186.35,25.92Z"/><path class="cls-1" d="M232.77,53.35a8.73,8.73,0,0,1-4.11-.83,5,5,0,0,1-2.29-2.37,8.91,8.91,0,0,1-.71-3.74V26.2h9.71V18.07h-9.71V8.28h-8.92V11.6a6.46,6.46,0,0,1-1.69,4.73,6.28,6.28,0,0,1-4.7,1.74h-1.19V26.2h7.58V46.8q0,6.87,3.71,10.66t10.42,3.78a21.79,21.79,0,0,0,2.37-.15c.89-.11,1.71-.21,2.45-.32V53.11l-1.5.16A12.52,12.52,0,0,1,232.77,53.35Z"/><polygon class="cls-1" points="293.54 18.07 283.91 47.11 274.2 18.07 266.07 18.07 256.3 47.11 246.74 18.07 237.26 18.07 251.95 60.77 260.08 60.77 270.14 30.44 280.2 60.77 288.26 60.77 303.02 18.07 293.54 18.07"/><path class="cls-1" d="M332.74,20A23.8,23.8,0,0,0,310,20a21.46,21.46,0,0,0-8,7.9,22.18,22.18,0,0,0-3,11.48,22,22,0,0,0,22.34,22.34,22.25,22.25,0,0,0,11.21-2.88,21.86,21.86,0,0,0,8.05-7.93,22.15,22.15,0,0,0,3-11.53,22.18,22.18,0,0,0-3-11.48A21.65,21.65,0,0,0,332.74,20Zm-.08,26.6a13.1,13.1,0,0,1-4.62,5,12.31,12.31,0,0,1-6.63,1.81,12.47,12.47,0,0,1-6.67-1.81,12.82,12.82,0,0,1-4.66-5,15.18,15.18,0,0,1-1.7-7.22,14.72,14.72,0,0,1,1.7-7.14,13.2,13.2,0,0,1,4.66-5,12.33,12.33,0,0,1,6.67-1.85A12.17,12.17,0,0,1,328,27.26a13.5,13.5,0,0,1,4.62,5,14.71,14.71,0,0,1,1.69,7.14A15.17,15.17,0,0,1,332.66,46.6Z"/><path class="cls-1" d="M357.17,19.37a9.81,9.81,0,0,0-3.79,4.21V18.07h-8.53v42.7h8.92V36.14q0-5,2.72-7.73a9.61,9.61,0,0,1,7.15-2.76h3.71V17.52h-2.61A14.74,14.74,0,0,0,357.17,19.37Z"/><polygon class="cls-1" points="397.42 60.77 407.76 60.77 390.95 35.2 407.05 18.07 395.84 18.07 378 36.57 378 8.28 369.08 8.28 369.08 60.77 378 60.77 378 47.81 384.4 41.01 397.42 60.77"/><path class="cls-2" d="M36.37,28.91A6.09,6.09,0,1,0,42.45,35,6.08,6.08,0,0,0,36.37,28.91Z"/><path class="cls-2" d="M42.36,20.91,60.22,6A36.79,36.79,0,0,0,50,0L37.87,10.1a2.33,2.33,0,0,1-3,0L22.76,0A37.09,37.09,0,0,0,12.49,6l17.89,14.9A9.34,9.34,0,0,0,42.36,20.91Z"/><path class="cls-2" d="M30.38,49.09,12.49,64a37.09,37.09,0,0,0,10.27,6L34.87,59.9a2.33,2.33,0,0,1,3,0L50,70a36.79,36.79,0,0,0,10.24-6L42.36,49.09A9.34,9.34,0,0,0,30.38,49.09Z"/><path class="cls-2" d="M63.62,33.21l9.12-7.6a37.49,37.49,0,0,0-4.66-10.69L52.62,27.81a9.36,9.36,0,0,0,0,14.38L68.08,55.08a37.49,37.49,0,0,0,4.66-10.69l-9.12-7.6A2.35,2.35,0,0,1,63.62,33.21Z"/><path class="cls-2" d="M20.11,27.81,4.63,14.92A36.6,36.6,0,0,0,0,25.61l9.1,7.6a2.33,2.33,0,0,1,0,3.58L0,44.39A36.6,36.6,0,0,0,4.63,55.08L20.11,42.19A9.39,9.39,0,0,0,20.11,27.81Z"/></g></g></g></svg>