<svg xmlns="http://www.w3.org/2000/svg" viewBox="0 0 301.1 289.77"><defs><style>.cls-1{fill:#fff;fill-rule:evenodd;}</style></defs><g id="Layer_2" data-name="Layer 2"><g id="Layer_1-2" data-name="Layer 1"><g id="Icon_1" data-name="Icon 1"><path class="cls-1" d="M150.55,119.67a25.22,25.22,0,1,0,25.17,25.17A25.18,25.18,0,0,0,150.55,119.67Z"/><path class="cls-1" d="M175.34,86.55l74-61.67A152.68,152.68,0,0,0,206.9,0L156.75,41.83a9.65,9.65,0,0,1-12.39,0L94.2,0A154.68,154.68,0,0,0,51.7,24.88l74.07,61.67A38.6,38.6,0,0,0,175.34,86.55Z"/><path class="cls-1" d="M125.77,203.22,51.7,264.89a154.43,154.43,0,0,0,42.5,24.88L144.36,248a9.65,9.65,0,0,1,12.39,0l50.15,41.82a152.44,152.44,0,0,0,42.4-24.88l-74-61.67A38.6,38.6,0,0,0,125.77,203.22Z"/><path class="cls-1" d="M263.34,137.48,301.1,106a154.85,154.85,0,0,0-19.26-44.24l-64,53.35a38.75,38.75,0,0,0,0,59.54l64,53.34a154.61,154.61,0,0,0,19.26-44.24l-37.76-31.47A9.74,9.74,0,0,1,263.34,137.48Z"/><path class="cls-1" d="M83.26,115.12,19.17,61.77A151.92,151.92,0,0,0,0,106l37.66,31.47a9.61,9.61,0,0,1,0,14.81L0,183.76A151.68,151.68,0,0,0,19.17,228l64.09-53.34A38.89,38.89,0,0,0,83.26,115.12Z"/></g></g></g></svg>